<svg width="40" height="40" viewBox="0 0 40 40" fill="none" xmlns="http://www.w3.org/2000/svg">
<g clip-path="url(#clip0_11_66)">
<path d="M38.3333 4.99997C36.7373 6.12577 34.9702 6.98682 33.1 7.54998C32.0962 6.39583 30.7622 5.57779 29.2784 5.20652C27.7945 4.83524 26.2325 4.92863 24.8035 5.47406C23.3744 6.01949 22.1474 6.99064 21.2883 8.25617C20.4292 9.52169 19.9795 11.0205 20 12.55V14.2166C17.071 14.2926 14.1688 13.643 11.5517 12.3257C8.93456 11.0084 6.68385 9.06437 4.99999 6.66664C4.99999 6.66664 -1.66668 21.6666 13.3333 28.3333C9.90087 30.6633 5.81192 31.8315 1.66666 31.6666C16.6667 40 35 31.6666 35 12.5C34.9985 12.0357 34.9538 11.5726 34.8667 11.1166C36.5677 9.43913 37.768 7.32116 38.3333 4.99997Z" stroke="#0F2A44" stroke-width="4" stroke-linecap="round" stroke-linejoin="round"/>
</g>
<defs>
<clipPath id="clip0_11_66">
<rect width="40" height="40" fill="white"/>
</clipPath>
</defs>
</svg>
